<svg id="visual" viewBox="0 0 900 600" width="900" height="600" xmlns="http://www.w3.org/2000/svg" xmlns:xlink="http://www.w3.org/1999/xlink" version="1.1"><rect x="0" y="0" width="900" height="600" fill="#ffffff"></rect><defs><linearGradient id="grad1_0" x1="33.3%" y1="0%" x2="100%" y2="100%"><stop offset="20%" stop-color="#eaeaea" stop-opacity="1"></stop><stop offset="80%" stop-color="#eaeaea" stop-opacity="1"></stop></linearGradient></defs><defs><linearGradient id="grad1_1" x1="33.3%" y1="0%" x2="100%" y2="100%"><stop offset="20%" stop-color="#eaeaea" stop-opacity="1"></stop><stop offset="80%" stop-color="#efefef" stop-opacity="1"></stop></linearGradient></defs><defs><linearGradient id="grad1_2" x1="33.3%" y1="0%" x2="100%" y2="100%"><stop offset="20%" stop-color="#f4f4f4" stop-opacity="1"></stop><stop offset="80%" stop-color="#efefef" stop-opacity="1"></stop></linearGradient></defs><defs><linearGradient id="grad1_3" x1="33.3%" y1="0%" x2="100%" y2="100%"><stop offset="20%" stop-color="#f4f4f4" stop-opacity="1"></stop><stop offset="80%" stop-color="#fafafa" stop-opacity="1"></stop></linearGradient></defs><defs><linearGradient id="grad1_4" x1="33.3%" y1="0%" x2="100%" y2="100%"><stop offset="20%" stop-color="#ffffff" stop-opacity="1"></stop><stop offset="80%" stop-color="#fafafa" stop-opacity="1"></stop></linearGradient></defs><defs><linearGradient id="grad2_0" x1="0%" y1="0%" x2="66.7%" y2="100%"><stop offset="20%" stop-color="#eaeaea" stop-opacity="1"></stop><stop offset="80%" stop-color="#eaeaea" stop-opacity="1"></stop></linearGradient></defs><defs><linearGradient id="grad2_1" x1="0%" y1="0%" x2="66.7%" y2="100%"><stop offset="20%" stop-color="#efefef" stop-opacity="1"></stop><stop offset="80%" stop-color="#eaeaea" stop-opacity="1"></stop></linearGradient></defs><defs><linearGradient id="grad2_2" x1="0%" y1="0%" x2="66.7%" y2="100%"><stop offset="20%" stop-color="#efefef" stop-opacity="1"></stop><stop offset="80%" stop-color="#f4f4f4" stop-opacity="1"></stop></linearGradient></defs><defs><linearGradient id="grad2_3" x1="0%" y1="0%" x2="66.7%" y2="100%"><stop offset="20%" stop-color="#fafafa" stop-opacity="1"></stop><stop offset="80%" stop-color="#f4f4f4" stop-opacity="1"></stop></linearGradient></defs><defs><linearGradient id="grad2_4" x1="0%" y1="0%" x2="66.7%" y2="100%"><stop offset="20%" stop-color="#fafafa" stop-opacity="1"></stop><stop offset="80%" stop-color="#ffffff" stop-opacity="1"></stop></linearGradient></defs><g transform="translate(900, 0)"><path d="M0 378.6C-43.4 361.5 -86.8 344.4 -136.6 329.8C-186.4 315.3 -242.6 303.3 -267.7 267.7C-292.8 232.1 -287 172.9 -300.3 124.4C-313.6 75.8 -346.1 37.9 -378.6 0L0 0Z" fill="#fcfcfc"></path><path d="M0 302.9C-34.7 289.2 -69.5 275.5 -109.3 263.9C-149.1 252.2 -194 242.6 -214.2 214.2C-234.3 185.7 -229.6 138.3 -240.2 99.5C-250.9 60.7 -276.9 30.3 -302.9 0L0 0Z" fill="#f7f7f7"></path><path d="M0 227.1C-26 216.9 -52.1 206.6 -82 197.9C-111.8 189.2 -145.5 182 -160.6 160.6C-175.7 139.3 -172.2 103.8 -180.2 74.6C-188.1 45.5 -207.6 22.7 -227.1 0L0 0Z" fill="#f2f2f2"></path><path d="M0 151.4C-17.4 144.6 -34.7 137.7 -54.6 131.9C-74.6 126.1 -97 121.3 -107.1 107.1C-117.1 92.8 -114.8 69.2 -120.1 49.7C-125.4 30.3 -138.4 15.2 -151.4 0L0 0Z" fill="#ededed"></path><path d="M0 75.7C-8.7 72.3 -17.4 68.9 -27.3 66C-37.3 63.1 -48.5 60.7 -53.5 53.5C-58.6 46.4 -57.4 34.6 -60.1 24.9C-62.7 15.2 -69.2 7.6 -75.7 0L0 0Z" fill="#eaeaea"></path></g><g transform="translate(0, 600)"><path d="M0 -378.6C46.7 -370.6 93.3 -362.6 143.9 -347.4C194.5 -332.1 249 -309.6 267.7 -267.7C286.4 -225.8 269.3 -164.6 281.8 -116.7C294.3 -68.9 336.4 -34.4 378.6 0L0 0Z" fill="#fcfcfc"></path><path d="M0 -302.9C37.3 -296.5 74.6 -290.1 115.1 -277.9C155.6 -265.7 199.2 -247.7 214.2 -214.2C229.1 -180.6 215.4 -131.6 225.4 -93.4C235.4 -55.1 269.2 -27.6 302.9 0L0 0Z" fill="#f7f7f7"></path><path d="M0 -227.1C28 -222.4 56 -217.6 86.3 -208.4C116.7 -199.3 149.4 -185.8 160.6 -160.6C171.8 -135.5 161.6 -98.7 169.1 -70C176.6 -41.3 201.9 -20.7 227.1 0L0 0Z" fill="#f2f2f2"></path><path d="M0 -151.4C18.7 -148.2 37.3 -145.1 57.6 -139C77.8 -132.8 99.6 -123.8 107.1 -107.1C114.6 -90.3 107.7 -65.8 112.7 -46.7C117.7 -27.6 134.6 -13.8 151.4 0L0 0Z" fill="#ededed"></path><path d="M0 -75.7C9.3 -74.1 18.7 -72.5 28.8 -69.5C38.9 -66.4 49.8 -61.9 53.5 -53.5C57.3 -45.2 53.9 -32.9 56.4 -23.3C58.9 -13.8 67.3 -6.9 75.7 0L0 0Z" fill="#eaeaea"></path></g></svg>